<svg id="Layer_1" data-name="Layer 1" xmlns="http://www.w3.org/2000/svg" viewBox="0 0 355.03 358.86"><g id="angular-logo"><polygon points="175.1 356.13 318.3 282.58 344.65 63.88 178.03 4.78 175.1 356.13" style="fill:#0c4f67"/><polygon points="177.49 356.14 36.55 281.74 13.05 63.09 178.75 5.13 177.49 356.14" style="fill:#91ccef"/><text/><path d="M223.18,173.27s-8.38-3.69-15.76,0-30.51,37.22-57.67,34.54c-18.92-1.87-29.06-9.87-33.47-14.56a13.1,13.1,0,0,0-21.53,3.83c-5,11.4,0,16.1,0,16.1S126.27,240.67,153.1,238s82.83-40.58,82.83-40.58,7.71-11.73,0-16.43-12.75-7.71-12.75-7.71Z" style="fill:#49a0d8"/><path d="M234.31,198.5c-9.38,6.2-57.09,37.08-81.21,39.49-26.83,2.68-58.35-24.81-58.35-24.81-2.23.33-16.73,10.73-16.7,18,0,3.82,2.19,7.31,4.81,10.08,22.12,23.36,32.62,20.85,67.56,22.54,48.92,2.36,75.45-14.52,75.45-14.52s31.85-19.68,31.85-35.78-23.41-15-23.41-15Z" style="fill:#1c85c1"/><path d="M278.85,208.48c-.67-27.83-22.69-51.65-27.61-48.29-4.77,3.27,1.57,8.16,1.57,8.16,18.44,16.88,15.64,40.47,8.94,51.2s-10.51,8.29-10.51,8.29c-9.31,11.52-25.37,21.45-25.37,21.45a77.22,77.22,0,0,1-14,6.36h0c47.7,14.3,67.66-19.34,67-47.17Z" style="fill:#1475a1"/><path d="M111,109.56s29.51,3.18,44.43-.34c0,0,9.75,9.79,1.75,20.78-5.31,7.3-25.93,34.26-33.11,41.63-4.59,4.72-9.66,17.68-4.25,24.92,5.49,4.47,14.95,9.78,29.91,11.26,0,0-7.72-10.65,3.35-23.22s52.06-65.39,22.13-94.06c0,0-9.81-15.34-23.89-14.34s-19.85,2.9-27.16,3c0,0-6.29,1-7.55,4.78,0,0-15,5.62-15.84,7.46S96.09,105,111,109.56Z" style="fill:#65b4e4"/><path d="M133.32,92.35a7.45,7.45,0,1,1-7.45-7.44,7.44,7.44,0,0,1,7.45,7.44Z" style="fill:#0c4f67"/><path d="M130.2,89.13a2.68,2.68,0,1,1-2.68-2.67,2.67,2.67,0,0,1,2.68,2.67Z" style="fill:#fff"/><path d="M160.69,148.49l2.63,23.14h0c6.89-9.61,14.86-22.62,19.27-36.07Z" style="fill:#49a0d8"/><path d="M174,115.14l8.64,20.27c4.43-13.59,5.2-27.61-2.45-39Z" style="fill:#49a0d8"/><path d="M153.1,184.59c2.37-2.69,6.1-7.22,10.22-13h0l-23.58,10.22,3.1,25h0l6.9,1S142,197.16,153.1,184.59Z" style="fill:#49a0d8"/><path d="M114.59,216.11l27.07-9.56c-13.8-3-21.64-9.33-25.38-13.3a13,13,0,0,0-4.51-3.13Z" style="fill:#1c85c1"/><path d="M184.07,194.52c-9.75,7.85-21.6,14.55-34.32,13.29a72.39,72.39,0,0,1-8.09-1.26h0l24.28,12.84Z" style="fill:#1c85c1"/><path d="M184.07,194.52l27.79,1.91,6.43-24.51a18,18,0,0,0-10.87,1.35c-3.92,2-12.29,12.35-23.35,21.25Z" style="fill:#1c85c1"/><path d="M128.35,233.69c-18.33-7.19-33.6-20.51-33.6-20.51l7.44,27.71Z" style="fill:#1475a1"/><path d="M153.22,252.19l22.15-20.82c-8.28,3.49-16.06,6-22.27,6.62-8.15.82-16.74-1.16-24.75-4.3Z" style="fill:#1475a1"/><path d="M216.28,231.37l18-32.87c-7,4.6-35.06,22.81-58.94,32.87Z" style="fill:#1475a1"/></g></svg>