<svg id="Layer_1" data-name="Layer 1" xmlns="http://www.w3.org/2000/svg" viewBox="0 0 165.2 160.34"><g id="angular-logo"><polygon points="83.04 157.17 146.85 125.27 158.6 30.41 84.34 4.78 83.04 157.17" style="fill:#0c4f67"/><polygon points="84.1 157.18 21.3 124.91 10.82 30.07 84.67 4.93 84.1 157.18" style="fill:#91ccef"/><text/><path d="M104.47,77.86s-3.74-1.6-7,0-13.6,16.15-25.7,15c-8.43-.81-12.95-4.28-14.91-6.31a5.81,5.81,0,0,0-5-1.72,5.69,5.69,0,0,0-4.57,3.38c-2.24,4.94,0,7,0,7s14.05,11.93,26,10.76,36.92-17.6,36.92-17.6,3.43-5.09,0-7.12-5.68-3.35-5.68-3.35Z" style="fill:#49a0d8"/><path d="M109.42,88.8c-4.18,2.69-25.44,16.09-36.19,17.13-12,1.17-26-10.76-26-10.76-1,.14-7.46,4.65-7.44,7.81a6.67,6.67,0,0,0,2.14,4.38c9.86,10.13,14.54,9,30.11,9.77,21.8,1,33.62-6.3,33.62-6.3s14.2-8.53,14.2-15.52-10.44-6.51-10.44-6.51Z" style="fill:#1c85c1"/><path d="M129.27,93.13c-.3-12.07-10.11-22.4-12.3-20.94s.7,3.54.7,3.54c8.22,7.32,7,17.55,4,22.2s-4.68,3.6-4.68,3.6c-4.15,5-11.31,9.3-11.31,9.3a34.78,34.78,0,0,1-6.24,2.76h0c21.26,6.2,30.15-8.39,29.85-20.46Z" style="fill:#1475a1"/><path d="M54.48,50.23s13.15,1.38,19.8-.15c0,0,4.35,4.25.78,9C72.69,62.26,63.51,74,60.31,77.15c-2.05,2-4.31,7.67-1.9,10.81,2.45,1.94,6.67,4.24,13.33,4.88,0,0-3.44-4.62,1.49-10.07S96.43,54.41,83.1,42c0,0-4.37-6.65-10.65-6.22S63.61,37,60.35,37.06c0,0-2.81.44-3.37,2.08,0,0-6.68,2.43-7.06,3.23s-2.09,5.89,4.56,7.86Z" style="fill:#65b4e4"/><path d="M64.42,42.76a3.32,3.32,0,1,1-3.32-3.23,3.28,3.28,0,0,1,3.32,3.23Z" style="fill:#0c4f67"/><path d="M63,41.37a1.2,1.2,0,1,1-1.19-1.16A1.18,1.18,0,0,1,63,41.37Z" style="fill:#fff"/><path d="M76.62,67.11l1.17,10h0A60.33,60.33,0,0,0,86.38,61.5Z" style="fill:#49a0d8"/><path d="M82.55,52.65l3.85,8.79c2-5.89,2.32-12-1.09-16.92Z" style="fill:#49a0d8"/><path d="M73.23,82.77c1.06-1.17,2.72-3.13,4.56-5.62h0L67.28,81.58,68.66,92.4h0l3.07.44S68.3,88.22,73.23,82.77Z" style="fill:#49a0d8"/><path d="M56.07,96.44,68.14,92.3c-6.15-1.3-9.65-4-11.31-5.77a5.69,5.69,0,0,0-2-1.36Z" style="fill:#1c85c1"/><path d="M87,87.08c-4.35,3.4-9.63,6.31-15.3,5.76a32.59,32.59,0,0,1-3.6-.54h0L79,97.86Z" style="fill:#1c85c1"/><path d="M87,87.08l12.38.82,2.86-10.62a8.13,8.13,0,0,0-4.84.58C95.7,78.71,92,83.22,87,87.08Z" style="fill:#1c85c1"/><path d="M62.21,104.07a58.92,58.92,0,0,1-15-8.9l3.32,12Z" style="fill:#1475a1"/><path d="M73.29,112.09l9.87-9a37.93,37.93,0,0,1-9.93,2.87,24.7,24.7,0,0,1-11-1.86Z" style="fill:#1475a1"/><path d="M101.39,103.06l8-14.26c-3.1,2-15.62,9.9-26.26,14.26Z" style="fill:#1475a1"/></g></svg>